{"title":"The Karate Kid (2010) 1080p BluRay {DD 5.1 Triple Audio} {6Ch.} ","uid":9522171,"size":4175315606,"categoryP":"video","categoryS":"hd___movies","magnet":"?xt=urn:btih:db28bd37a02d155d45eaaee6f15ec98ba94848c0&amp;dn=The+Karate+Kid+%282010%29+1080p+BluRay+%7BDD+5.1+Triple+Audio%7D+%7B6Ch.%7D+&amp;tr=udp%3A%2F%2Ftracker.openbittorrent.com%3A80&amp;tr=udp%3A%2F%2Fopen.demonii.com%3A1337&amp;tr=udp%3A%2F%2Ftracker.coppersurfer.tk%3A6969&amp;tr=udp%3A%2F%2Fexodus.desync.com%3A6969","seeders":1,"leechers":2,"uploader":"SaNRiM","files":-1,"time":1390662859,"description":"Storyline\n\n12-year-old Dre Parker could've been the most popular kid in Detroit, but his mother's latest career move has landed him in China. Dre immediately falls for his classmate Mei Ying - and the feeling is mutual - but cultural differences make such a friendship impossible. Even worse, Dre's feelings make an enemy of the class bully, Cheng. In the land of kung fu, Dre knows only a little karate, and Cheng puts &quot;the karate kid&quot; on the floor with ease. With no friends in a strange land, Dre has nowhere to turn but maintenance man Mr. Han, who is secretly a master of kung fu. As Han teaches Dre that kung fu is not about punches and parries, but maturity and calm, Dre realizes that facing down the bullies will be the fight of his life.\n\n\n\nTorrent Info\n\nGeneral\n\nUnique ID : 218813602786828099489930663090881627576 (0xA49DF78C4E2F59D1969928A7DB7505B8)\nComplete name : The Karate Kid (2010) 1080p BluRay {DD 5.1 Triple Audio} {6Ch.} [Hindi-Tamil-English] [Multi Sub] ~SaNRiM~.mkv\nFormat : Matroska\nFormat version : Version 4 / Version 2\nFile size : 3.88 GiB\nDuration : 2h 20mn\nOverall bit rate : 3 964 Kbps\nMovie name : Enjoy the best ~SaNRiM~ Find me on facebook\nEncoded date : UTC 2014-01-25 10:49:12\nWriting library : libebml v1.3.0 + libmatroska v1.4.1\n\n\nVideo\n\nID : 1\nFormat : AVC\nFormat/Info : Advanced Video Codec\nFormat profile : &lt;a class=&quot;__cf_email__&quot; href=&quot;/cdn-cgi/l/email-protection&quot; data-cfemail=&quot;8cc1ede5e2ccc0b8a2bc&quot;&gt;[email&amp;#160;protected]&lt;/a&gt;&lt;script cf-hash='f9e31' type=&quot;text/javascript&quot;&gt;\n/* &lt;![CDATA[ */!function(){try{var t=&quot;currentScript&quot;in document?document.currentScript:function(){for(var t=document.getElementsByTagName(&quot;script&quot;),e=t.length;e--;)if(t[e].getAttribute(&quot;cf-hash&quot;))return t[e]}();if(t&amp;&amp;t.previousSibling){var e,r,n,i,c=t.previousSibling,a=c.getAttribute(&quot;data-cfemail&quot;);if(a){for(e=&quot;&quot;,r=parseInt(a.substr(0,2),16),n=2;a.length-n;n+=2)i=parseInt(a.substr(n,2),16)^r,e+=String.fromCharCode(i);e=document.createTextNode(e),c.parentNode.replaceChild(e,c)}}}catch(u){}}();/* ]]&gt; */&lt;/script&gt;\nFormat settings, CABAC : Yes\nFormat settings, ReFrames : 4 frames\nCodec ID : V_MPEG4/ISO/AVC\nDuration : 2h 20mn\nBit rate : 2 541 Kbps\nWidth : 1 920 pixels\nHeight : 800 pixels\nDisplay aspect ratio : 2.40:1\nFrame rate mode : Constant\nFrame rate : 23.976 fps\nColor space : YUV\nChroma subsampling : 4:2:0\nBit depth : 8 bits\nScan type : Progressive\nBits/(Pixel*Frame) : 0.069\nStream size : 2.49 GiB (64%)\nTitle : ~SaNRiM~\nWriting library : x264 core 130 r2273 b3065e6\nLanguage : English\nDefault : Yes\nForced : No\nColor primaries : BT.709\nTransfer characteristics : BT.709\nMatrix coefficients : BT.709\n\n\nAudio #1\n\nID : 2\nFormat : AC-3\nFormat/Info : Audio Coding 3\nMode extension : CM (complete main)\nFormat settings, Endianness : Big\nCodec ID : A_AC3\nDuration : 2h 20mn\nBit rate mode : Constant\nBit rate : 448 Kbps\nChannel(s) : 6 channels\nChannel positions : Front: L C R, Side: L R, LFE\nSampling rate : 48.0 KHz\nBit depth : 16 bits\nCompression mode : Lossy\nStream size : 449 MiB (11%)\nTitle : ~SaNRiM~\nLanguage : Hindi\nDefault : Yes\nForced : No\n\n\nAudio #2\n\nID : 3\nFormat : AC-3\nFormat/Info : Audio Coding 3\nMode extension : CM (complete main)\nFormat settings, Endianness : Big\nCodec ID : A_AC3\nDuration : 2h 20mn\nBit rate mode : Constant\nBit rate : 448 Kbps\nChannel(s) : 6 channels\nChannel positions : Front: L C R, Side: L R, LFE\nSampling rate : 48.0 KHz\nBit depth : 16 bits\nCompression mode : Lossy\nStream size : 449 MiB (11%)\nTitle : ~SaNRiM~\nLanguage : Tamil\nDefault : No\nForced : No\n\n\nAudio #3\n\nID : 4\nFormat : AC-3\nFormat/Info : Audio Coding 3\nMode extension : CM (complete main)\nFormat settings, Endianness : Big\nCodec ID : A_AC3\nDuration : 2h 20mn\nBit rate mode : Constant\nBit rate : 448 Kbps\nChannel(s) : 6 channels\nChannel positions : Front: L C R, Side: L R, LFE\nSampling rate : 48.0 KHz\nBit depth : 16 bits\nCompression mode : Lossy\nStream size : 449 MiB (11%)\nTitle : ~SaNRiM~\nLanguage : English\nDefault : No\nForced : No\n\n\nText #1\n\nID : 5\nFormat : VobSub\nMuxing mode : zlib\nCodec ID : S_VOBSUB\nCodec ID/Info : The same subtitle format used on DVDs\nTitle : ~SaNRiM~\nLanguage : English\nDefault : Yes\nForced : No\n\n\nText #2\n\nID : 6\nFormat : VobSub\nMuxing mode : zlib\nCodec ID : S_VOBSUB\nCodec ID/Info : The same subtitle format used on DVDs\nTitle : ~SaNRiM~\nLanguage : Hindi\nDefault : No\nForced : No\n\n\nText #3\n\nID : 7\nFormat : VobSub\nMuxing mode : zlib\nCodec ID : S_VOBSUB\nCodec ID/Info : The same subtitle format used on DVDs\nTitle : ~SaNRiM~\nLanguage : Arabic\nDefault : No\nForced : No\n\n\n\nScreens\n &lt;a href=&quot;\nhttp://someimage.com/Yi0UMHl&quot; rel=&quot;nofollow&quot; target=&quot;_NEW&quot;&gt;\nhttp://someimage.com/Yi0UMHl&lt;/a&gt; &lt;a href=&quot;\nhttp://someimage.com/WrcOp4E&quot; rel=&quot;nofollow&quot; target=&quot;_NEW&quot;&gt;\nhttp://someimage.com/WrcOp4E&lt;/a&gt; &lt;a href=&quot;\nhttp://someimage.com/i6k0LyS&quot; rel=&quot;nofollow&quot; target=&quot;_NEW&quot;&gt;\nhttp://someimage.com/i6k0LyS&lt;/a&gt; &lt;a href=&quot;\nhttp://someimage.com/AiEPh5s&quot; rel=&quot;nofollow&quot; target=&quot;_NEW&quot;&gt;\nhttp://someimage.com/AiEPh5s&lt;/a&gt; &lt;a href=&quot;\nhttp://someimage.com/sTFh2v1&quot; rel=&quot;nofollow&quot; target=&quot;_NEW&quot;&gt;\nhttp://someimage.com/sTFh2v1&lt;/a&gt; &lt;a href=&quot;\nhttp://someimage.com/E3cqlf5&quot; rel=&quot;nofollow&quot; target=&quot;_NEW&quot;&gt;\nhttp://someimage.com/E3cqlf5&lt;/a&gt; &lt;a href=&quot;\nhttp://someimage.com/A9zI5Kz&quot; rel=&quot;nofollow&quot; target=&quot;_NEW&quot;&gt;\nhttp://someimage.com/A9zI5Kz&lt;/a&gt; &lt;a href=&quot;\nhttp://someimage.com/H8h8gMO&quot; rel=&quot;nofollow&quot; target=&quot;_NEW&quot;&gt;\nhttp://someimage.com/H8h8gMO&lt;/a&gt; &lt;a href=&quot;\nhttp://someimage.com/oH6HqBO&quot; rel=&quot;nofollow&quot; target=&quot;_NEW&quot;&gt;\nhttp://someimage.com/oH6HqBO&lt;/a&gt; &lt;a href=&quot;\nhttp://someimage.com/jXFNRH4&quot; rel=&quot;nofollow&quot; target=&quot;_NEW&quot;&gt;\nhttp://someimage.com/jXFNRH4&lt;/a&gt; &lt;a href=&quot;\nhttp://someimage.com/2MZsMp1&quot; rel=&quot;nofollow&quot; target=&quot;_NEW&quot;&gt;\nhttp://someimage.com/2MZsMp1&lt;/a&gt; &lt;a href=&quot;\nhttp://someimage.com/I0qfZyd&quot; rel=&quot;nofollow&quot; target=&quot;_NEW&quot;&gt;\nhttp://someimage.com/I0qfZyd&lt;/a&gt; &lt;a href=&quot;\nhttp://someimage.com/6aSlHOS&quot; rel=&quot;nofollow&quot; target=&quot;_NEW&quot;&gt;\nhttp://someimage.com/6aSlHOS&lt;/a&gt; &lt;a href=&quot;\nhttp://someimage.com/Ygx732L&quot; rel=&quot;nofollow&quot; target=&quot;_NEW&quot;&gt;\nhttp://someimage.com/Ygx732L&lt;/a&gt; &lt;a href=&quot;\nhttp://someimage.com/KAGCdwV&quot; rel=&quot;nofollow&quot; target=&quot;_NEW&quot;&gt;\nhttp://someimage.com/KAGCdwV&lt;/a&gt; &lt;a href=&quot;\nhttp://someimage.com/PLNnC4t&quot; rel=&quot;nofollow&quot; target=&quot;_NEW&quot;&gt;\nhttp://someimage.com/PLNnC4t&lt;/a&gt; &lt;a href=&quot;\nhttp://someimage.com/ssxptfA&quot; rel=&quot;nofollow&quot; target=&quot;_NEW&quot;&gt;\nhttp://someimage.com/ssxptfA&lt;/a&gt; &lt;a href=&quot;\nhttp://someimage.com/0UjP0GN&quot; rel=&quot;nofollow&quot; target=&quot;_NEW&quot;&gt;\nhttp://someimage.com/0UjP0GN&lt;/a&gt; &lt;a href=&quot;\nhttp://someimage.com/K0mPSoN&quot; rel=&quot;nofollow&quot; target=&quot;_NEW&quot;&gt;\nhttp://someimage.com/K0mPSoN&lt;/a&gt; &lt;a href=&quot;\nhttp://someimage.com/Q0lyOGr&quot; rel=&quot;nofollow&quot; target=&quot;_NEW&quot;&gt;\nhttp://someimage.com/Q0lyOGr&lt;/a&gt; &lt;a href=&quot;\nhttp://someimage.com/J9N46T7&quot; rel=&quot;nofollow&quot; target=&quot;_NEW&quot;&gt;\nhttp://someimage.com/J9N46T7&lt;/a&gt; &lt;a href=&quot;\nhttp://someimage.com/D8KvFCx&quot; rel=&quot;nofollow&quot; target=&quot;_NEW&quot;&gt;\nhttp://someimage.com/D8KvFCx&lt;/a&gt; &lt;a href=&quot;\nhttp://someimage.com/1luBcHg&quot; rel=&quot;nofollow&quot; target=&quot;_NEW&quot;&gt;\nhttp://someimage.com/1luBcHg&lt;/a&gt; &lt;a href=&quot;\nhttp://someimage.com/UVTBL5Z&quot; rel=&quot;nofollow&quot; target=&quot;_NEW&quot;&gt;\nhttp://someimage.com/UVTBL5Z&lt;/a&gt; &lt;a href=&quot;\nhttp://someimage.com/qChZBUT&quot; rel=&quot;nofollow&quot; target=&quot;_NEW&quot;&gt;\nhttp://someimage.com/qChZBUT&lt;/a&gt;\n\n\n\n                  If you like my work please comment\n                          Any request? Just PM me\n                       Please seed long after download\n                         Thank you &amp; enjoy the best\n                                 ~SaNRiM~\n\n\n","torrent":{"xt":"urn:btih:db28bd37a02d155d45eaaee6f15ec98ba94848c0","amp;dn":"The+Karate+Kid+%282010%29+1080p+BluRay+%7BDD+5.1+Triple+Audio%7D+%7B6Ch.%7D+","amp;tr":["udp%3A%2F%2Ftracker.openbittorrent.com%3A80","udp%3A%2F%2Fopen.demonii.com%3A1337","udp%3A%2F%2Ftracker.coppersurfer.tk%3A6969","udp%3A%2F%2Fexodus.desync.com%3A6969"],"infoHash":"db28bd37a02d155d45eaaee6f15ec98ba94848c0","infoHashBuffer":{"type":"Buffer","data":[219,40,189,55,160,45,21,93,69,234,174,230,241,94,201,139,169,72,72,192]},"announce":[],"urlList":[]}}